<svg xmlns="http://www.w3.org/2000/svg" viewBox="0 0 428 349"><defs><style>.cls-1,.cls-9{fill:#fff3e6;}.cls-2,.cls-4,.cls-6,.cls-7{fill:#f26922;}.cls-10,.cls-13,.cls-14,.cls-15,.cls-3{fill:none;}.cls-3{stroke:#f26922;}.cls-4{font-size:16.05px;letter-spacing:0.02em;}.cls-4,.cls-6{font-family:Gotham-Light, Gotham;}.cls-5{font-size:11px;fill:#666;letter-spacing:0.02em;}.cls-5,.cls-7{font-family:Gotham-Bold, Gotham;font-weight:700;}.cls-6{font-size:9px;}.cls-6,.cls-7{letter-spacing:0.04em;}.cls-7{font-size:10px;}.cls-8{fill:#fff;stroke:#d1d1d1;stroke-width:0.5px;}.cls-10,.cls-11,.cls-12,.cls-13,.cls-14,.cls-15,.cls-8,.cls-9{stroke-miterlimit:10;}.cls-9{stroke:#e6dfd7;stroke-width:7px;}.cls-10,.cls-11{stroke:#83ae98;}.cls-10,.cls-11,.cls-12,.cls-13,.cls-14,.cls-15{stroke-width:4.5px;}.cls-11{fill:#83ae98;}.cls-12{fill:#f93;stroke:#fec00f;}.cls-13{stroke:#8bad43;}.cls-14{stroke:#f8971d;}.cls-15{stroke:#ec6721;}</style></defs><title>bargraph</title><g id="Background"><rect class="cls-1" x="0.44" y="-43.54" width="427.11" height="392.04"/><path class="cls-2" d="M427-43V348H.94V-43H427m1-1H-.06V349H428V-44Z"/></g><g id="Graphic_Title" data-name="Graphic Title"><line class="cls-3" x1="-4.63" y1="63.27" x2="432.63" y2="63.27"/><polyline class="cls-3" points="-4.63 0.93 207.72 0.93 214 12.07 220.28 0.93 432.63 0.93"/><text class="cls-4" transform="translate(21.18 47.68)">SMART GUN LAWS, LOW GUN DEATH RATES</text></g><g id="Bar_Graph" data-name="Bar Graph"><g id="Graph_labels" data-name="Graph labels"><text class="cls-5" transform="translate(156.21 337.6)">GUN LAW GRADE RANGE</text><text class="cls-6" transform="translate(33.13 107.42)">20<tspan x="3.24" y="48">15</tspan><tspan x="2.29" y="96">10</tspan><tspan x="6.61" y="148">5</tspan><tspan x="5.67" y="196">0</tspan></text><text class="cls-7" transform="translate(74.89 320.47)">A</text><text class="cls-7" transform="translate(114.9 320.47)">B</text><text class="cls-7" transform="translate(158.11 320.47)">C</text><text class="cls-7" transform="translate(208.39 320.47)">D</text><text class="cls-7" transform="translate(320.84 320.47)">F</text><text class="cls-5" transform="translate(22.08 286.22) rotate(-90)">GUN DEATH RATE PER 100,000</text><line class="cls-8" x1="52.19" y1="104.19" x2="415.69" y2="104.19"/><line class="cls-8" x1="52.19" y1="114.03" x2="415.69" y2="114.03"/><line class="cls-8" x1="52.19" y1="123.88" x2="415.69" y2="123.88"/><line class="cls-8" x1="52.19" y1="133.72" x2="415.69" y2="133.72"/><line class="cls-8" x1="52.19" y1="143.57" x2="415.69" y2="143.57"/><line class="cls-8" x1="52.19" y1="153.42" x2="415.69" y2="153.42"/><line class="cls-8" x1="52.19" y1="163.26" x2="415.69" y2="163.26"/><line class="cls-8" x1="52.19" y1="173.11" x2="415.69" y2="173.11"/><line class="cls-8" x1="52.19" y1="182.95" x2="415.69" y2="182.95"/><line class="cls-8" x1="52.19" y1="192.8" x2="415.69" y2="192.8"/><line class="cls-8" x1="52.19" y1="202.64" x2="415.69" y2="202.64"/><line class="cls-8" x1="52.19" y1="212.49" x2="415.69" y2="212.49"/><line class="cls-8" x1="52.19" y1="222.34" x2="415.69" y2="222.34"/><line class="cls-8" x1="52.19" y1="232.18" x2="415.69" y2="232.18"/><line class="cls-8" x1="52.19" y1="242.03" x2="415.69" y2="242.03"/><line class="cls-8" x1="52.19" y1="251.87" x2="415.69" y2="251.87"/><line class="cls-8" x1="52.19" y1="261.72" x2="415.69" y2="261.72"/><line class="cls-8" x1="52.19" y1="271.57" x2="415.69" y2="271.57"/><line class="cls-8" x1="52.19" y1="281.41" x2="415.69" y2="281.41"/><line class="cls-8" x1="52.19" y1="291.26" x2="415.69" y2="291.26"/><line class="cls-8" x1="52.19" y1="301.1" x2="415.69" y2="301.1"/><line class="cls-9" x1="52.19" y1="304.93" x2="415.69" y2="304.93"/><line class="cls-10" x1="194.26" y1="214.51" x2="194.26" y2="305.6"/><line class="cls-10" x1="201.48" y1="195.85" x2="201.48" y2="305.6"/><line class="cls-10" x1="208.69" y1="185.53" x2="208.69" y2="305.6"/><line class="cls-11" x1="215.91" y1="214.51" x2="215.91" y2="305.6"/><line class="cls-11" x1="223.12" y1="176.35" x2="223.12" y2="305.6"/><line class="cls-10" x1="230.34" y1="177.35" x2="230.34" y2="305.6"/><line class="cls-12" x1="136.55" y1="226.94" x2="136.55" y2="305.6"/><line class="cls-12" x1="143.76" y1="191.35" x2="143.76" y2="305.6"/><line class="cls-12" x1="150.98" y1="178.35" x2="150.98" y2="305.6"/><line class="cls-12" x1="158.19" y1="189.1" x2="158.19" y2="305.6"/><line class="cls-12" x1="165.41" y1="224.85" x2="165.41" y2="305.6"/><line class="cls-12" x1="172.62" y1="187.29" x2="172.62" y2="305.6"/><line class="cls-12" x1="179.84" y1="156.24" x2="179.84" y2="305.6"/><line class="cls-12" x1="187.05" y1="195.85" x2="187.05" y2="305.6"/><line class="cls-13" x1="107.69" y1="206.23" x2="107.69" y2="305.6"/><line class="cls-13" x1="114.91" y1="255.92" x2="114.91" y2="305.6"/><line class="cls-13" x1="122.12" y1="204.56" x2="122.12" y2="305.6"/><line class="cls-13" x1="129.34" y1="180.85" x2="129.34" y2="305.6"/><line class="cls-14" x1="57.19" y1="226.94" x2="57.19" y2="305.6"/><line class="cls-14" x1="64.41" y1="249.65" x2="64.41" y2="305.6"/><line class="cls-14" x1="71.62" y1="247.76" x2="71.62" y2="305.6"/><line class="cls-14" x1="78.84" y1="271.23" x2="78.84" y2="305.6"/><line class="cls-14" x1="86.05" y1="260.48" x2="86.05" y2="305.6"/><line class="cls-14" x1="93.26" y1="185.53" x2="93.26" y2="305.6"/><line class="cls-14" x1="100.48" y1="269.98" x2="100.48" y2="305.6"/><text class="cls-6" transform="translate(35.53 78.92)">23</text></g><g id="Graph_light_gray_lines" data-name="Graph light gray lines"><line class="cls-8" x1="52.19" y1="84.49" x2="415.69" y2="84.49"/><line class="cls-8" x1="52.19" y1="74.69" x2="415.69" y2="74.69"/><line class="cls-8" x1="52.19" y1="94.34" x2="415.69" y2="94.34"/></g><g id="Graph_Bars" data-name="Graph Bars"><g id="Graph_Bars_-_F_Grades" data-name="Graph Bars - F Grades"><line class="cls-15" x1="237.55" y1="183.85" x2="237.55" y2="305.6"/><line class="cls-15" x1="244.76" y1="145.83" x2="244.76" y2="305.6"/><line class="cls-15" x1="251.98" y1="125.85" x2="251.98" y2="305.6"/><line class="cls-15" x1="259.19" y1="176.35" x2="259.19" y2="305.6"/><line class="cls-15" x1="266.41" y1="176.35" x2="266.41" y2="305.6"/><line class="cls-15" x1="273.62" y1="160.19" x2="273.62" y2="305.6"/><line class="cls-15" x1="280.84" y1="130.19" x2="280.84" y2="305.6"/><line class="cls-15" x1="288.05" y1="117.85" x2="288.05" y2="305.6"/><line class="cls-15" x1="295.26" y1="185.53" x2="295.26" y2="305.6"/><line class="cls-15" x1="302.48" y1="160.19" x2="302.48" y2="305.6"/><line class="cls-15" x1="309.69" y1="202.73" x2="309.69" y2="305.6"/><line class="cls-15" x1="316.91" y1="105.85" x2="316.91" y2="305.6"/><line class="cls-15" x1="324.12" y1="137.52" x2="324.12" y2="305.6"/><line class="cls-15" x1="331.34" y1="109.52" x2="331.34" y2="305.6"/><line class="cls-15" x1="338.55" y1="189.1" x2="338.55" y2="305.6"/><line class="cls-15" x1="345.76" y1="206.23" x2="345.76" y2="305.6"/><line class="cls-15" x1="352.98" y1="150.52" x2="352.98" y2="305.6"/><line class="cls-15" x1="360.19" y1="99.85" x2="360.19" y2="305.6"/><line class="cls-15" x1="374.62" y1="109.52" x2="374.62" y2="305.6"/><line class="cls-15" x1="381.84" y1="160.19" x2="381.84" y2="305.6"/><line class="cls-15" x1="389.05" y1="165.52" x2="389.05" y2="305.6"/><line class="cls-15" x1="396.26" y1="189.91" x2="396.26" y2="305.6"/><line class="cls-15" x1="403.48" y1="125.85" x2="403.48" y2="305.6"/><line class="cls-15" x1="410.69" y1="109.52" x2="410.69" y2="305.6"/><line class="cls-15" x1="367.41" y1="72.35" x2="367.41" y2="305.6"/></g></g></g></svg>